:FULLY-SPECIFIED
:FORCE-ALL-JOINTS-BE-3DOF
:DEGREES
469
root 10.7803 17.3225 29.7212 4.92629 2.51309 4.12957
lfemur -3.72517 3.36375 -29.6224
ltibia 16.1265 -0 0
lfoot -14.3904 4.35087 -0.0205357
ltoes 2.04869 -0 0
rfemur -30.8519 3.5362 12.8916
rtibia 54.7687 -0 0
rfoot -17.1806 -9.30434 -0.0958079
rtoes -11.6179 0 0
lowerback -5.39644 -3.01952 -4.42962
upperback -0.978671 -3.78624 1.09839
thorax 2.3806 -1.93247 3.24486
lowerneck -21.751 -3.25232 -10.9725
upperneck 24.8932 -3.89204 10.676
head 12.267 -1.40192 5.28965
lclavicle 2.62644e-14 2.22639e-14 0
lhumerus -19.1433 -16.9456 88.0829
lradius 25.9882 -0 0
lwrist -0.997491 0 0
lhand -12.8307 -24.6873 0.00818187
lfingers 7.12502 -0 0
lthumb 13.2564 4.87067 0.00812993
rclavicle 2.62644e-14 2.22639e-14 0
rhumerus -48.3657 9.19046 -87.3552
rradius 34.7431 -0 0
rwrist -14.7759 0 0
rhand -29.9279 -28.9185 0.0246978
rfingers 7.12502 -0 0
rthumb -3.24783 -58.8725 0.0237973
470
root 10.7799 17.3143 29.8498 4.914 2.6378 4.20719
lfemur -2.71235 3.28632 -29.6174
ltibia 15.3284 -0 0
lfoot -14.4804 4.35165 -0.0201741
ltoes 2.10515 -0 0
rfemur -31.4773 4.06314 12.6058
rtibia 53.5019 -0 0
rfoot -17.7986 -9.2883 -0.0978122
rtoes -10.9948 0 0
lowerback -5.41499 -3.1356 -4.50556
upperback -0.931794 -3.93506 1.09379
thorax 2.45919 -2.00969 3.26655
lowerneck -21.7936 -3.20558 -10.9158
upperneck 24.921 -3.84894 10.6956
head 12.2798 -1.37399 5.29666
lclavicle 2.62644e-14 2.22639e-14 0
lhumerus -18.8202 -17.3184 87.9763
lradius 26.4381 -0 0
lwrist -0.644906 0 0
lhand -12.9267 -24.7702 0.00863845
lfingers 7.12502 -0 0
lthumb 13.1639 4.7936 0.00852612
rclavicle 2.62644e-14 2.22639e-14 0
rhumerus -48.4979 9.1036 -87.2741
rradius 34.8012 -0 0
rwrist -14.9654 0 0
rhand -29.8829 -28.6457 0.0256835
rfingers 7.12502 -0 0
rthumb -3.20432 -58.6004 0.0247471
471
root 10.7794 17.3061 29.9784 4.90254 2.76243 4.28145
lfemur -1.70157 3.2051 -29.6082
ltibia 14.5239 -0 0
lfoot -14.569 4.3545 -0.0196734
ltoes 2.15044 -0 0
rfemur -32.0951 4.59691 12.3169
rtibia 52.2003 -0 0
rfoot -18.4195 -9.26622 -0.0989397
rtoes -10.3658 0 0
lowerback -5.43504 -3.25087 -4.57935
upperback -0.884292 -4.08283 1.0899
thorax 2.53939 -2.08643 3.28797
lowerneck -21.8357 -3.15933 -10.8593
upperneck 24.9481 -3.80686 10.7162
head 12.2925 -1.34638 5.30395
lclavicle 2.62644e-14 2.22639e-14 0
lhumerus -18.5049 -17.693 87.8697
lradius 26.8934 -0 0
lwrist -0.285587 0 0
lhand -13.0215 -24.8527 0.00903697
lfingers 7.12502 -0 0
lthumb 13.0725 4.71677 0.0088648
rclavicle 2.62644e-14 2.22639e-14 0
rhumerus -48.6254 9.01754 -87.192
rradius 34.861 -0 0
rwrist -15.1577 0 0
rhand -29.837 -28.368 0.0264609
rfingers 7.12502 -0 0
rthumb -3.16007 -58.3233 0.0254963
472
root 10.7789 17.2979 30.107 4.89187 2.88671 4.35249
lfemur -0.694873 3.12053 -29.5953
ltibia 13.7154 -0 0
lfoot -14.6561 4.35923 -0.019043
ltoes 2.20278 -0 0
rfemur -32.7048 5.13546 12.0254
rtibia 50.8703 -0 0
rfoot -19.0418 -9.23873 -0.0991588
rtoes -9.7327 0 0
lowerback -5.45639 -3.36515 -4.65104
upperback -0.83633 -4.22932 1.08666
thorax 2.62087 -2.16258 3.30911
lowerneck -21.8774 -3.11363 -10.803
upperneck 24.9744 -3.76581 10.7378
head 12.3049 -1.31914 5.31146
lclavicle 2.62644e-14 2.22639e-14 0
lhumerus -18.1971 -18.0686 87.7632
lradius 27.3528 -0 0
lwrist 0.0790415 0 0
lhand -13.1151 -24.9347 0.00937264
lfingers 7.12502 -0 0
lthumb 12.9823 4.64033 0.00914202
rclavicle 2.62644e-14 2.22639e-14 0
rhumerus -48.7485 8.93243 -87.109
rradius 34.9224 -0 0
rwrist -15.3521 0 0
rhand -29.7906 -28.0864 0.0270175
rfingers 7.12502 -0 0
rthumb -3.11524 -58.0423 0.0260326
473
root 10.7785 17.2896 30.2355 4.88193 3.01039 4.42047
lfemur 0.305691 3.03301 -29.5794
ltibia 12.9052 -0 0
lfoot -14.7418 4.36562 -0.0182934
ltoes 2.25088 -0 0
rfemur -33.3065 5.67674 11.7317
rtibia 49.5178 -0 0
rfoot -19.6637 -9.20647 -0.0984523
rtoes -9.09751 0 0
lowerback -5.47885 -3.47826 -4.72066
upperback -0.788071 -4.37432 1.08399
thorax 2.70329 -2.23801 3.32991
lowerneck -21.9186 -3.06851 -10.7471
upperneck 24.9998 -3.72578 10.7601
head 12.3171 -1.2923 5.31916
lclavicle 2.62644e-14 2.22639e-14 0
lhumerus -17.8969 -18.4439 87.6568
lradius 27.8147 -0 0
lwrist 0.447556 0 0
lhand -13.2072 -25.0161 0.0096414
lfingers 7.12502 -0 0
lthumb 12.8934 4.56441 0.00935452
rclavicle 2.62644e-14 2.22639e-14 0
rhumerus -48.8672 8.84837 -87.0256
rradius 34.985 -0 0
rwrist -15.548 0 0
rhand -29.7438 -27.8019 0.0273436
rfingers 7.12502 -0 0
rthumb -3.07 -57.7584 0.0263469
474
root 10.778 17.2814 30.3641 4.87268 3.1332 4.48556
lfemur 1.29808 2.94302 -29.5611
ltibia 12.0956 -0 0
lfoot -14.8259 4.37349 -0.0174356
ltoes 2.28469 -0 0
rfemur -33.8997 6.21871 11.4362
rtibia 48.149 -0 0
rfoot -20.2837 -9.17006 -0.0968186
rtoes -8.46216 0 0
lowerback -5.50223 -3.59004 -4.78825
upperback -0.739679 -4.5176 1.08184
thorax 2.78633 -2.31261 3.35036
lowerneck -21.9592 -3.02404 -10.6918
upperneck 25.0246 -3.68675 10.7832
head 12.3291 -1.26587 5.32701
lclavicle 2.62644e-14 2.22639e-14 0
lhumerus -17.604 -18.8181 87.5507
lradius 28.2776 -0 0
lwrist 0.818532 0 0
lhand -13.298 -25.0967 0.00983994
lfingers 7.12502 -0 0
lthumb 12.8059 4.48917 0.00949975
rclavicle 2.62644e-14 2.22639e-14 0
rhumerus -48.9818 8.76549 -86.9419
rradius 35.0485 -0 0
rwrist -15.7446 0 0
rhand -29.6967 -27.5157 0.0274332
rfingers 7.12502 -0 0
rthumb -3.02452 -57.4729 0.0264334
